<svg width="342" height="258" viewBox="0 0 342 258" fill="none" xmlns="http://www.w3.org/2000/svg">
<path d="M176.049 207.742C171.906 207.742 168.549 211.1 168.549 215.242V236.567C168.549 240.709 171.906 244.067 176.049 244.067C180.192 244.067 183.549 240.709 183.549 236.567V215.242C183.549 211.1 180.191 207.742 176.049 207.742Z" fill="white"/>
<path d="M176.049 60.612C180.192 60.612 183.549 57.254 183.549 53.112V31.786C183.549 27.644 180.192 24.286 176.049 24.286C171.906 24.286 168.549 27.644 168.549 31.786V53.111C168.549 57.254 171.906 60.612 176.049 60.612Z" fill="white"/>
<path d="M249.605 134.178C249.605 138.32 252.962 141.678 257.105 141.678H278.429C282.572 141.678 285.929 138.32 285.929 134.178C285.929 130.036 282.572 126.678 278.429 126.678H257.105C252.963 126.678 249.605 130.035 249.605 134.178Z" fill="white"/>
<path d="M102.477 134.178C102.477 130.036 99.1201 126.678 94.9771 126.678H73.6431C69.5001 126.678 66.1431 130.036 66.1431 134.178C66.1431 138.32 69.5001 141.678 73.6431 141.678H94.9771C99.1191 141.678 102.477 138.32 102.477 134.178Z" fill="white"/>
<path d="M233.359 84.349C235.278 84.349 237.198 83.617 238.663 82.152L253.739 67.076C256.668 64.147 256.668 59.398 253.739 56.47C250.809 53.541 246.061 53.541 243.132 56.47L228.056 71.546C225.127 74.475 225.127 79.224 228.056 82.152C229.52 83.617 231.441 84.349 233.359 84.349Z" fill="white"/>
<path d="M113.409 186.193L98.3348 201.269C95.4058 204.198 95.4058 208.947 98.3358 211.875C99.7998 213.339 101.72 214.071 103.639 214.071C105.558 214.071 107.478 213.339 108.943 211.874L124.017 196.798C126.946 193.869 126.946 189.12 124.016 186.192C121.088 183.263 116.339 183.263 113.409 186.193Z" fill="white"/>
<path d="M234.414 134.178C234.414 101.989 208.228 75.801 176.041 75.801C143.85 75.801 117.662 101.989 117.662 134.178C117.662 166.366 143.85 192.553 176.041 192.553C208.228 192.553 234.414 166.366 234.414 134.178ZM132.662 134.178C132.662 110.26 152.122 90.801 176.041 90.801C199.957 90.801 219.414 110.26 219.414 134.178C219.414 158.095 199.957 177.553 176.041 177.553C152.122 177.553 132.662 158.095 132.662 134.178Z" fill="white"/>
<path d="M305.735 187.6C299.34 174.813 285.839 166.303 271.033 166.303C250.689 166.303 233.97 181.829 232.516 201.446C219.197 203.867 209.078 215.376 209.078 229.166C209.078 244.708 221.934 257.354 237.738 257.354H305.576C325.152 257.354 341.078 241.708 341.078 222.477C341.078 203.298 325.238 187.685 305.735 187.6ZM305.576 242.353H237.738C230.206 242.353 224.078 236.437 224.078 229.165C224.078 221.893 230.206 215.977 237.738 215.977C238.179 215.977 238.702 216.014 239.382 216.092C241.692 216.359 244.003 215.537 245.626 213.865C247.249 212.193 248.002 209.862 247.665 207.557C247.499 206.416 247.414 205.294 247.414 204.223C247.414 191.584 258.01 181.302 271.033 181.302C281.411 181.302 290.72 188.04 293.672 197.688C294.775 201.292 298.382 203.519 302.094 202.889C303.231 202.697 304.403 202.599 305.576 202.599C316.881 202.599 326.078 211.516 326.078 222.476C326.078 233.437 316.881 242.353 305.576 242.353Z" fill="white"/>
<path d="M132 56.174C132 36.995 116.161 21.382 96.658 21.297C90.262 8.51 76.762 0 61.955 0C41.611 0 24.892 15.526 23.438 35.144C10.119 37.563 0 49.072 0 62.862C0 78.405 12.856 91.05 28.66 91.05H96.496C116.073 91.05 132 75.404 132 56.174ZM15 62.862C15 55.59 21.128 49.674 28.66 49.674C29.102 49.674 29.622 49.711 30.295 49.789C32.607 50.06 34.919 49.239 36.545 47.567C38.169 45.895 38.924 43.563 38.587 41.256C38.421 40.114 38.336 38.992 38.336 37.92C38.336 25.281 48.932 14.999 61.955 14.999C72.333 14.999 81.642 21.737 84.594 31.384C85.696 34.985 89.306 37.21 93.006 36.586C94.154 36.394 95.328 36.296 96.496 36.296C107.802 36.296 117 45.213 117 56.174C117 67.133 107.802 76.05 96.496 76.05H28.66C21.128 76.05 15 70.134 15 62.862Z" fill="white"/>
</svg>
