<svg width="250" height="168" viewBox="0 0 250 168" fill="none" xmlns="http://www.w3.org/2000/svg">
<path d="M185.496 42.594C184.021 42.594 182.544 42.645 181.071 42.745C176.346 31.341 168.441 21.202 158.366 13.752C146.2 4.755 131.693 0 116.414 0C77.959 0 46.674 30.658 46.674 68.343C46.674 68.708 46.677 69.075 46.684 69.444C20.669 71.038 0 92.309 0 118.225C0 145.175 22.35 167.1 49.822 167.1H185.496C220.513 167.1 249.002 139.173 249.002 104.847C249.002 70.52 220.513 42.594 185.496 42.594ZM185.496 152.1H49.822C30.621 152.1 15 136.904 15 118.225C15 99.545 30.621 84.347 49.822 84.347C51.005 84.347 52.322 84.436 53.969 84.628C56.282 84.899 58.593 84.075 60.216 82.403C61.84 80.731 62.594 78.4 62.257 76.094C61.87 73.444 61.674 70.836 61.674 68.342C61.674 38.929 86.23 14.999 116.414 14.999C140.435 14.999 162.003 30.656 168.863 53.075C169.965 56.675 173.559 58.907 177.278 58.276C179.974 57.823 182.739 57.593 185.495 57.593C212.241 57.593 234.001 78.791 234.001 104.847C234.002 130.903 212.242 152.1 185.496 152.1Z" fill="#10BA99"/>
</svg>
