<svg width="228" height="234" viewBox="0 0 228 234" fill="none" xmlns="http://www.w3.org/2000/svg">
<path d="M169.317 38.723C168.124 38.723 166.929 38.759 165.735 38.831C155.939 15.688 132.435 0 106.514 0C71.179 0 42.432 28.178 42.432 62.813C42.432 62.935 42.432 63.056 42.433 63.178C18.732 64.96 0 84.454 0 108.16C0 133.035 20.625 153.273 45.976 153.273H169.316C201.525 153.273 227.73 127.579 227.73 95.998C227.731 64.416 201.526 38.723 169.317 38.723ZM169.317 138.273H45.977C28.897 138.273 15.001 124.764 15.001 108.16C15.001 91.555 28.897 78.045 45.977 78.045C47.031 78.045 48.203 78.125 49.664 78.295C51.979 78.569 54.288 77.745 55.913 76.073C57.538 74.402 58.292 72.07 57.956 69.763C57.609 67.384 57.433 65.045 57.433 62.812C57.432 36.449 79.45 15 106.514 15C128.054 15 147.392 29.036 153.541 49.132C154.643 52.731 158.241 54.96 161.953 54.334C164.373 53.928 166.85 53.723 169.316 53.723C193.254 53.723 212.73 72.688 212.73 95.998C212.731 119.309 193.255 138.273 169.317 138.273Z" fill="white"/>
<path d="M36.6709 196.751L58.1569 175.265C61.0859 172.336 61.0859 167.587 58.1569 164.659C55.2279 161.73 50.4789 161.73 47.5509 164.659L26.0649 186.145C23.1359 189.074 23.1359 193.823 26.0649 196.752C27.5289 198.216 29.4489 198.949 31.3679 198.949C33.2869 198.947 35.2059 198.215 36.6709 196.751Z" fill="white"/>
<path d="M82.509 196.751L103.993 175.265C106.922 172.336 106.921 167.587 103.992 164.658C101.062 161.729 96.314 161.73 93.385 164.659L71.901 186.145C68.972 189.074 68.973 193.823 71.901 196.752C73.366 198.216 75.285 198.948 77.204 198.948C79.125 198.947 81.045 198.215 82.509 196.751Z" fill="white"/>
<path d="M128.345 196.751L149.829 175.265C152.758 172.336 152.757 167.587 149.829 164.658C146.899 161.729 142.151 161.73 139.222 164.659L117.738 186.145C114.809 189.074 114.81 193.823 117.738 196.752C119.203 198.216 121.122 198.948 123.041 198.948C124.961 198.947 126.881 198.215 128.345 196.751Z" fill="white"/>
<path d="M185.06 164.658L163.574 186.144C160.645 189.073 160.645 193.822 163.574 196.751C165.038 198.215 166.958 198.948 168.877 198.948C170.796 198.948 172.716 198.216 174.18 196.751L195.666 175.265C198.595 172.336 198.595 167.587 195.666 164.659C192.738 161.729 187.989 161.729 185.06 164.658Z" fill="white"/>
<path d="M50.698 199.301L29.214 220.787C26.285 223.716 26.286 228.465 29.214 231.394C30.679 232.858 32.598 233.59 34.517 233.59C36.437 233.59 38.356 232.858 39.821 231.393L61.305 209.907C64.234 206.978 64.233 202.229 61.304 199.3C58.376 196.372 53.6269 196.372 50.698 199.301Z" fill="white"/>
<path d="M96.669 199.301L75.185 220.787C72.256 223.716 72.257 228.465 75.186 231.394C76.651 232.858 78.57 233.59 80.489 233.59C82.408 233.59 84.328 232.858 85.793 231.393L107.277 209.907C110.206 206.978 110.205 202.229 107.277 199.3C104.346 196.372 99.598 196.372 96.669 199.301Z" fill="white"/>
<path d="M142.64 199.301L121.156 220.787C118.227 223.716 118.228 228.465 121.156 231.394C122.621 232.858 124.54 233.59 126.459 233.59C128.378 233.59 130.298 232.858 131.763 231.393L153.247 209.907C156.176 206.978 156.175 202.229 153.246 199.3C150.317 196.372 145.569 196.372 142.64 199.301Z" fill="white"/>
</svg>
