<svg width="193" height="220" viewBox="0 0 193 220" fill="none" xmlns="http://www.w3.org/2000/svg">
<path d="M188.597 154.591L166.275 141.703L185.62 130.296C189.188 128.192 190.375 123.594 188.271 120.026C186.166 116.458 181.57 115.273 178 117.375L151.354 133.088L135.671 124.034V95.747L151.345 86.697L178.001 102.409C179.197 103.114 180.508 103.448 181.803 103.448C184.371 103.448 186.872 102.128 188.271 99.755C190.375 96.187 189.187 91.589 185.619 89.485L166.27 78.08L188.597 65.189C192.184 63.118 193.413 58.531 191.342 54.944C189.272 51.357 184.683 50.128 181.097 52.199L158.773 65.088L158.571 42.627C158.534 38.485 155.139 35.132 151.004 35.195C146.861 35.232 143.534 38.62 143.571 42.762L143.849 73.703L128.169 82.756L103.673 68.612V50.511L130.609 35.287C134.214 33.249 135.486 28.674 133.448 25.067C131.41 21.461 126.833 20.189 123.228 22.228L103.673 33.281V7.5C103.673 3.358 100.316 0 96.173 0C92.03 0 88.673 3.358 88.673 7.5V33.281L69.117 22.229C65.51 20.189 60.934 21.462 58.897 25.068C56.859 28.674 58.13 33.25 61.736 35.288L88.673 50.512V68.615L64.178 82.757L48.496 73.703L48.774 42.763C48.811 38.621 45.484 35.233 41.341 35.196C41.317 35.196 41.295 35.196 41.273 35.196C37.163 35.196 33.811 38.509 33.774 42.629L33.572 65.088L11.251 52.2C7.66104 50.128 3.07504 51.358 1.00604 54.945C-1.06496 58.532 0.164038 63.119 3.75104 65.19L26.078 78.081L6.72604 89.486C3.15704 91.589 1.96904 96.187 4.07304 99.756C5.47104 102.129 7.97204 103.449 10.541 103.449C11.835 103.449 13.147 103.114 14.342 102.41L41.001 86.698L56.677 95.749V124.035L40.993 133.091L14.343 117.376C10.776 115.272 6.17904 116.459 4.07304 120.027C1.96904 123.595 3.15704 128.193 6.72404 130.297L26.071 141.704L3.75104 154.591C0.164038 156.662 -1.06496 161.249 1.00604 164.836C2.39604 167.242 4.91604 168.587 7.50804 168.587C8.78004 168.587 10.071 168.262 11.251 167.581L33.572 154.694L33.774 177.155C33.811 181.274 37.162 184.588 41.273 184.588C41.295 184.588 41.319 184.588 41.341 184.587C45.483 184.55 48.811 181.162 48.774 177.02L48.495 146.077L64.177 137.023L88.673 151.167V169.272L61.736 184.496C58.131 186.534 56.859 191.109 58.897 194.716C60.276 197.156 62.817 198.527 65.433 198.527C66.683 198.527 67.951 198.214 69.117 197.555L88.673 186.503V212.282C88.673 216.424 92.03 219.782 96.173 219.782C100.316 219.782 103.673 216.424 103.673 212.282V186.503L123.229 197.555C124.395 198.214 125.663 198.527 126.913 198.527C129.529 198.527 132.07 197.156 133.449 194.716C135.487 191.109 134.216 186.534 130.61 184.496L103.674 169.272V151.168L128.171 137.023L143.851 146.075L143.565 177.017C143.527 181.159 146.854 184.548 150.996 184.586C151.019 184.587 151.043 184.587 151.066 184.587C155.176 184.587 158.527 181.274 158.565 177.156L158.773 154.69L181.098 167.58C182.28 168.262 183.569 168.586 184.841 168.586C187.433 168.586 189.954 167.24 191.343 164.835C193.413 161.249 192.183 156.662 188.597 154.591ZM71.677 95.748L96.175 81.603L120.671 95.748V124.033L96.175 138.178L71.677 124.033V95.748Z" fill="white"/>
</svg>
