<svg width="220" height="220" viewBox="0 0 220 220" fill="none" xmlns="http://www.w3.org/2000/svg">
<path d="M109.881 183.457C105.739 183.457 102.381 186.815 102.381 190.957V212.281C102.381 216.423 105.739 219.781 109.881 219.781C114.024 219.781 117.381 216.423 117.381 212.281V190.957C117.381 186.814 114.023 183.457 109.881 183.457Z" fill="white"/>
<path d="M109.881 36.326C114.024 36.326 117.381 32.968 117.381 28.826V7.5C117.381 3.358 114.024 0 109.881 0C105.739 0 102.381 3.358 102.381 7.5V28.826C102.381 32.968 105.739 36.326 109.881 36.326Z" fill="white"/>
<path d="M47.2691 161.906L32.1851 176.982C29.2551 179.91 29.2541 184.659 32.1821 187.588C33.6471 189.053 35.5671 189.786 37.4871 189.786C39.4061 189.786 41.3241 189.054 42.7891 187.591L57.8731 172.515C60.8031 169.587 60.8041 164.838 57.8761 161.909C54.9461 158.979 50.1981 158.979 47.2691 161.906Z" fill="white"/>
<path d="M167.208 60.064C169.127 60.064 171.046 59.332 172.511 57.868L187.593 42.792C190.522 39.863 190.523 35.115 187.595 32.185C184.666 29.255 179.918 29.254 176.988 32.184L161.906 47.26C158.977 50.188 158.976 54.937 161.904 57.866C163.368 59.332 165.288 60.064 167.208 60.064Z" fill="white"/>
<path d="M36.324 109.892C36.324 105.75 32.966 102.392 28.824 102.392H7.5C3.358 102.392 0 105.75 0 109.892C0 114.034 3.358 117.392 7.5 117.392H28.824C32.966 117.392 36.324 114.034 36.324 109.892Z" fill="white"/>
<path d="M212.286 102.392H190.952C186.809 102.392 183.452 105.75 183.452 109.892C183.452 114.034 186.809 117.392 190.952 117.392H212.286C216.429 117.392 219.786 114.034 219.786 109.892C219.786 105.751 216.429 102.392 212.286 102.392Z" fill="white"/>
<path d="M47.2669 57.868C48.7309 59.332 50.6509 60.064 52.5699 60.064C54.4889 60.064 56.4089 59.332 57.8729 57.868C60.8019 54.939 60.8019 50.19 57.8729 47.261L42.7969 32.185C39.8679 29.256 35.1189 29.256 32.1909 32.185C29.2619 35.114 29.2619 39.863 32.1909 42.791L47.2669 57.868Z" fill="white"/>
<path d="M172.52 161.908C169.591 158.979 164.842 158.978 161.913 161.907C158.983 164.836 158.983 169.585 161.912 172.513L176.986 187.589C178.451 189.054 180.37 189.786 182.29 189.786C184.209 189.786 186.129 189.054 187.593 187.59C190.523 184.661 190.523 179.912 187.594 176.984L172.52 161.908Z" fill="white"/>
<path d="M109.889 51.515C77.7021 51.515 51.5161 77.703 51.5161 109.892C51.5161 142.08 77.7021 168.267 109.889 168.267C142.079 168.267 168.267 142.08 168.267 109.892C168.267 77.703 142.078 51.515 109.889 51.515ZM109.889 153.267C85.9731 153.267 66.5161 133.809 66.5161 109.892C66.5161 85.974 85.9731 66.515 109.889 66.515C133.808 66.515 153.267 85.974 153.267 109.892C153.267 133.809 133.808 153.267 109.889 153.267Z" fill="white"/>
</svg>
